# Blender v3.0.0 OBJ File: 'Axe.blend'
# www.blender.org
mtllib Axe.mtl
o Plane
v 1.011546 0.000000 1.000073
v 1.088766 0.000000 1.003311
v 1.091931 0.000000 0.772264
v 1.095096 0.000000 0.601353
v 1.095096 0.000000 0.484248
v 1.072941 0.000000 0.465258
v 1.076106 0.000000 -0.310172
v 1.152067 0.000000 -0.325997
v 1.243852 0.000000 -0.303842
v 1.313482 0.000000 -0.256367
v 1.338802 0.000000 -0.177241
v 1.332473 0.000000 -0.104446
v 1.297657 0.000000 -0.034815
v 1.193212 0.000000 0.053805
v 1.186882 0.027447 0.205726
v 1.357792 0.027447 0.174076
v 1.503383 0.027447 0.098116
v 1.626819 0.027447 -0.028485
v 1.680624 0.027447 -0.161416
v 1.671129 0.027447 -0.449433
v 1.633149 0.027447 -0.582363
v 1.519209 0.027447 -0.715294
v 1.357792 0.027447 -0.788090
v 1.171057 0.027447 -0.832400
v 1.060281 0.027447 -0.851390
v 0.999388 0.015191 -0.864274
v 1.001048 0.015191 -0.814461
v 1.002709 0.015191 -0.786234
v 1.002709 0.015191 -0.743063
v 1.004369 0.015191 -0.696571
v 0.924185 0.017973 -0.512733
v 0.860885 0.017973 -0.503238
v 0.753274 0.017973 -0.484248
v 0.677314 0.017973 -0.420947
v 0.667819 0.017973 -0.363977
v 0.664654 0.017973 -0.322832
v 0.664654 0.017973 -0.278522
v 0.721624 0.017973 -0.212056
v 0.743779 0.017973 -0.196231
v 0.810245 0.017973 -0.142426
v 0.889370 0.017973 -0.082290
v 0.921020 0.017973 -0.041145
v 0.952670 0.000000 0.452598
v 0.927350 0.000000 0.493743
v 0.914690 0.000000 0.921020
v 0.914690 0.000000 0.993816
v 1.011546 0.030131 1.000073
v 1.088766 0.030131 1.003311
v 1.091931 0.030131 0.772264
v 1.095096 0.030131 0.601353
v 1.095096 0.030131 0.484248
v 1.072941 0.030131 0.465258
v 1.076106 0.030131 -0.310172
v 1.152067 0.030131 -0.325997
v 1.243852 0.030131 -0.303842
v 1.313482 0.030131 -0.256367
v 1.338802 0.030131 -0.177241
v 1.332473 0.030131 -0.104446
v 1.297657 0.030131 -0.034815
v 1.193212 0.030131 0.053805
v 1.186882 0.030131 0.205726
v 1.357792 0.030131 0.174076
v 1.503383 0.030131 0.098116
v 1.626819 0.030131 -0.028485
v 1.680624 0.030131 -0.161416
v 1.671129 0.030131 -0.449433
v 1.633149 0.030131 -0.582363
v 1.519209 0.030131 -0.715294
v 1.357792 0.030131 -0.788090
v 1.171057 0.030131 -0.832400
v 1.060281 0.030131 -0.851390
v 0.999388 0.030999 -0.864274
v 1.001048 0.030999 -0.814461
v 1.002709 0.030999 -0.786234
v 1.002709 0.030999 -0.743063
v 1.004369 0.030999 -0.696571
v 0.924185 0.030131 -0.512733
v 0.860885 0.030131 -0.503238
v 0.753274 0.030131 -0.484248
v 0.677314 0.030131 -0.420947
v 0.667819 0.030131 -0.363977
v 0.664654 0.030131 -0.322832
v 0.664654 0.030131 -0.278522
v 0.721624 0.030131 -0.212056
v 0.743779 0.030131 -0.196231
v 0.810245 0.030131 -0.142426
v 0.889370 0.030131 -0.082290
v 0.921020 0.030131 -0.041145
v 0.952670 0.030131 0.452598
v 0.927350 0.030131 0.493743
v 0.914690 0.030131 0.921020
v 0.914690 0.030131 0.993816
v 1.011546 0.065735 1.000073
v 1.088766 0.065735 1.003311
v 1.091931 0.065735 0.772264
v 1.095096 0.065735 0.601353
v 1.095096 0.065735 0.484248
v 1.072941 0.065735 0.465258
v 1.076106 0.065735 -0.310172
v 1.152067 0.065735 -0.325997
v 1.243852 0.065735 -0.303842
v 1.313482 0.065735 -0.256367
v 1.338802 0.065735 -0.177241
v 1.332473 0.065735 -0.104446
v 1.297657 0.065735 -0.034815
v 1.193212 0.065735 0.053805
v 1.186882 0.033975 0.205726
v 1.357792 0.033975 0.174076
v 1.503383 0.033975 0.098116
v 1.626819 0.033975 -0.028485
v 1.680624 0.033975 -0.161416
v 1.671129 0.033975 -0.449433
v 1.633149 0.033975 -0.582363
v 1.519209 0.033975 -0.715294
v 1.357792 0.033975 -0.788090
v 1.171057 0.033975 -0.832400
v 1.060281 0.033975 -0.851390
v 0.999388 0.049677 -0.864274
v 1.001048 0.049677 -0.814461
v 1.002709 0.049677 -0.786234
v 1.002709 0.049677 -0.743063
v 1.004369 0.049677 -0.696571
v 0.924185 0.044429 -0.512733
v 0.860885 0.044429 -0.503238
v 0.753274 0.044429 -0.484248
v 0.677314 0.044429 -0.420947
v 0.667819 0.044429 -0.363977
v 0.664654 0.044429 -0.322832
v 0.664654 0.044429 -0.278522
v 0.721624 0.044429 -0.212056
v 0.743779 0.044429 -0.196231
v 0.810245 0.044429 -0.142426
v 0.889370 0.044429 -0.082290
v 0.921020 0.065735 -0.041145
v 0.952670 0.065735 0.452598
v 0.927350 0.065735 0.493743
v 0.914690 0.065735 0.921020
v 0.914690 0.065735 0.993816
vt 0.517957 0.754390
vt 0.506701 0.774311
vt 0.534312 0.782069
vt 0.583423 0.797861
vt 0.668823 0.819477
vt 0.533798 0.725684
vt 0.749969 0.824124
vt 0.725102 0.598036
vt 0.524628 0.743254
vt 0.891855 0.127805
vt 0.851328 0.029628
vt 0.765722 0.206217
vt 0.907532 0.018019
vt 0.916304 0.489707
vt 0.804140 0.499967
vt 0.803517 0.535699
vt 0.866790 0.000000
vt 0.824570 0.794215
vt 0.683046 0.587564
vt 0.655497 0.564994
vt 0.544349 0.707114
vt 0.873194 0.427878
vt 0.550791 0.615283
vt 0.544606 0.448161
vt 0.478065 0.500304
vt 0.487293 0.567399
vt 0.933302 0.632970
vt 0.763520 0.593498
vt 0.868261 0.748177
vt 0.469828 0.525507
vt 0.532229 0.449898
vt 0.527049 0.597978
vt 0.485517 0.482886
vt 0.628053 0.432701
vt 0.649672 0.422676
vt 0.818916 0.248724
vt 0.780462 0.441722
vt 0.494929 0.464852
vt 0.790630 0.566671
vt 0.583081 0.440375
vt 0.939643 0.567443
vt 0.767286 0.228339
vt 0.856840 0.198038
vt 0.810369 0.378706
vt 0.831965 0.245699
vt 0.536750 0.892525
vt 0.530186 0.892525
vt 0.530186 0.918867
vt 0.536750 0.918867
vt 0.939643 0.033098
vt 0.486174 0.898494
vt 0.469828 0.898494
vt 0.469828 0.933305
vt 0.486174 0.933305
vt 0.516352 0.859586
vt 0.500007 0.859586
vt 0.500007 0.904075
vt 0.516352 0.904075
vt 0.987418 0.453137
vt 0.985654 0.453137
vt 0.985654 0.513895
vt 0.987418 0.513895
vt 0.530186 0.949662
vt 0.536750 0.949662
vt 0.955988 0.492805
vt 0.939643 0.492805
vt 0.939643 0.848781
vt 0.955988 0.848781
vt 0.985654 0.646041
vt 0.987418 0.646041
vt 0.561041 0.824124
vt 0.554477 0.824124
vt 0.554477 0.870777
vt 0.561041 0.870777
vt 0.569619 0.837957
vt 0.569619 0.854302
vt 0.581332 0.854302
vt 0.581332 0.837957
vt 0.953476 0.492805
vt 0.969821 0.492805
vt 0.969821 0.459428
vt 0.953476 0.459428
vt 0.985654 0.707434
vt 0.987418 0.707434
vt 0.554477 0.898374
vt 0.561041 0.898374
vt 0.986167 0.000000
vt 0.969821 0.000000
vt 0.969821 0.053756
vt 0.986167 0.053756
vt 0.969821 0.263226
vt 0.953476 0.263226
vt 0.985654 0.766403
vt 0.987418 0.766403
vt 0.978795 0.764131
vt 0.972231 0.764131
vt 0.969821 0.850290
vt 0.978396 0.850290
vt 0.969821 0.132233
vt 0.986167 0.132233
vt 0.969821 0.243771
vt 0.953476 0.243771
vt 0.568387 0.824124
vt 0.566623 0.824124
vt 0.566623 0.890669
vt 0.568387 0.890669
vt 0.516352 0.824124
vt 0.500007 0.824124
vt 0.969821 0.871568
vt 0.978396 0.871568
vt 0.969821 0.238315
vt 0.986167 0.238315
vt 0.969821 0.018127
vt 0.953476 0.018127
vt 0.566623 0.969008
vt 0.568387 0.969008
vt 0.969821 0.891362
vt 0.978396 0.891362
vt 0.960040 0.000000
vt 0.953476 0.000000
vt 0.986167 0.238315
vt 0.984403 0.238315
vt 0.969821 0.308119
vt 0.986167 0.308119
vt 0.969821 0.904266
vt 0.978396 0.904266
vt 0.548895 0.824124
vt 0.542331 0.824124
vt 0.542331 0.860680
vt 0.548895 0.860680
vt 0.969821 0.351187
vt 0.986167 0.351187
vt 0.969821 0.927066
vt 0.978396 0.927066
vt 0.542331 0.891400
vt 0.548895 0.891400
vt 0.969821 0.383924
vt 0.986167 0.383924
vt 0.977078 0.764131
vt 0.985654 0.764131
vt 0.978445 0.735557
vt 0.976680 0.735557
vt 0.542331 0.901632
vt 0.548895 0.901632
vt 0.969821 0.417449
vt 0.986167 0.417449
vt 0.978445 0.683985
vt 0.976680 0.683985
vt 0.536750 0.824124
vt 0.530186 0.824124
vt 0.530186 0.853270
vt 0.536750 0.853270
vt 0.969821 0.453137
vt 0.986167 0.453137
vt 0.978445 0.595918
vt 0.976680 0.595918
vt 0.530186 0.873586
vt 0.536750 0.873586
vt 0.486174 0.824124
vt 0.469828 0.824124
vt 0.469828 0.856272
vt 0.486174 0.856272
vt 0.978445 0.516618
vt 0.976680 0.516618
vt 0.988650 0.707434
vt 0.988650 0.766403
vt 0.939643 0.459428
vt 0.939643 0.263226
vt 1.000000 0.000000
vt 1.000000 0.053756
vt 0.566623 0.870777
vt 0.566623 0.898374
vt 0.988650 0.646041
vt 0.939643 0.492805
vt 0.569619 0.824124
vt 0.581332 0.824124
vt 0.566623 0.824124
vt 0.988650 0.513895
vt 0.969821 0.492805
vt 0.969821 0.848781
vt 0.542331 0.918867
vt 0.542331 0.949662
vt 0.988650 0.453137
vt 0.530186 0.859586
vt 0.530186 0.904075
vt 0.500007 0.898494
vt 0.500007 0.933305
vt 0.542331 0.892525
vt 0.975448 0.516618
vt 0.976680 0.453137
vt 0.975448 0.453137
vt 0.500007 0.856272
vt 0.542331 0.873586
vt 0.975448 0.595918
vt 0.500007 0.824124
vt 0.542331 0.853270
vt 0.975448 0.683985
vt 1.000000 0.417449
vt 1.000000 0.453137
vt 0.542331 0.824124
vt 0.975448 0.735557
vt 1.000000 0.383924
vt 0.554477 0.891400
vt 0.554477 0.901632
vt 0.969821 0.764131
vt 1.000000 0.351187
vt 0.554477 0.860680
vt 0.985654 0.904266
vt 0.985654 0.927066
vt 1.000000 0.308119
vt 0.554477 0.824124
vt 0.985654 0.891362
vt 0.987399 0.238315
vt 0.947894 0.018127
vt 0.947894 0.000000
vt 0.530186 0.824124
vt 0.985654 0.871568
vt 0.569619 0.890669
vt 0.569619 0.969008
vt 0.939643 0.243771
vt 1.000000 0.132233
vt 1.000000 0.238315
vt 0.985654 0.850290
vt 0.569619 0.824124
vt 0.984376 0.764131
vt 0.048117 0.069775
vt 0.064482 0.042041
vt 0.036860 0.049855
vt 0.113595 0.026252
vt 0.198998 0.004642
vt 0.063958 0.098480
vt 0.255279 0.226171
vt 0.280148 0.000000
vt 0.054788 0.080911
vt 0.422038 0.696371
vt 0.295901 0.617960
vt 0.381510 0.794539
vt 0.437717 0.806149
vt 0.446489 0.334397
vt 0.333697 0.288506
vt 0.334320 0.324235
vt 0.396973 0.824165
vt 0.354751 0.029910
vt 0.213221 0.236640
vt 0.074510 0.117049
vt 0.185671 0.259207
vt 0.403378 0.396219
vt 0.080965 0.208845
vt 0.074781 0.375953
vt 0.017465 0.256722
vt 0.008238 0.323811
vt 0.463487 0.191146
vt 0.398444 0.075947
vt 0.293698 0.230710
vt 0.000000 0.298609
vt 0.062403 0.374216
vt 0.057223 0.226148
vt 0.015689 0.341228
vt 0.158230 0.391416
vt 0.179706 0.401618
vt 0.349097 0.575459
vt 0.310641 0.382475
vt 0.025102 0.359261
vt 0.320810 0.257537
vt 0.113257 0.383740
vt 0.469828 0.256669
vt 0.297465 0.595840
vt 0.387022 0.626143
vt 0.340550 0.445384
vt 0.362147 0.578484
vt 0.469828 0.791073
vt 0.978445 0.453137
vn 0.1987 -0.9800 -0.0066
vn 0.0431 -0.9668 -0.2517
vn 0.0224 -0.9953 -0.0944
vn 0.0231 -0.9984 -0.0512
vn 0.0715 -0.9974 -0.0042
vn 0.0000 -1.0000 0.0000
vn 0.0726 -0.9974 0.0000
vn 0.1002 -0.9937 0.0501
vn 0.0436 -0.9983 -0.0374
vn -0.0079 -0.9993 -0.0378
vn 0.0591 -0.9918 0.1133
vn -0.0872 -0.9959 -0.0230
vn 0.0752 -0.9972 -0.0025
vn -0.0119 -0.9968 -0.0795
vn 0.0109 -0.9989 -0.0453
vn -0.0495 -0.9980 0.0381
vn -0.1159 -0.9933 -0.0005
vn 0.0888 -0.9905 0.1046
vn 0.0343 -0.9981 -0.0504
vn 0.0812 -0.9964 -0.0260
vn -0.0379 -0.9982 0.0468
vn 0.0785 -0.9964 0.0318
vn 0.0663 -0.9976 -0.0190
vn 0.0741 -0.9946 0.0722
vn 0.0039 -0.9993 -0.0366
vn 0.0332 -0.9833 0.1790
vn 0.0213 -0.9984 -0.0516
vn 0.0908 -0.9958 0.0079
vn -0.9864 0.0000 -0.1644
vn 0.0343 -0.9994 -0.0012
vn -0.0621 -0.9978 -0.0237
vn -0.0369 -0.9981 0.0485
vn 0.2040 0.0000 0.9790
vn -0.0645 0.0000 0.9979
vn 0.9615 0.0000 -0.2747
vn -0.6402 0.0000 -0.7682
vn 1.0000 0.0000 0.0041
vn 0.9995 0.0000 -0.0329
vn -0.1738 0.0000 -0.9848
vn 0.6508 0.0000 -0.7593
vn -1.0000 0.0000 0.0000
vn 0.9269 0.0000 0.3752
vn -0.1483 0.0000 -0.9889
vn 1.0000 0.0000 0.0000
vn -0.9996 0.0000 -0.0296
vn 0.7160 0.0000 0.6981
vn -0.9166 0.0000 -0.3998
vn 0.9998 0.0000 0.0185
vn -0.8517 0.0000 -0.5241
vn 0.4626 0.0000 0.8866
vn -0.0419 0.0000 0.9991
vn -0.9994 0.0000 0.0357
vn 0.9999 0.0000 0.0137
vn -0.9980 0.0000 0.0640
vn 0.1821 0.0000 0.9833
vn -0.7926 0.0000 0.6097
vn -0.9991 0.0000 -0.0416
vn -0.9983 0.0000 0.0587
vn -0.6051 0.0000 0.7962
vn -0.6470 0.0000 -0.7625
vn -0.9994 0.0000 0.0333
vn -0.6292 0.0000 0.7772
vn -0.8944 0.0000 -0.4472
vn 0.2070 0.0000 -0.9783
vn -0.5812 0.0000 0.8137
vn -0.9962 0.0000 -0.0866
vn 0.1690 0.0000 -0.9856
vn -0.7593 0.0000 0.6508
vn -0.9524 0.0000 0.3048
vn 0.2309 0.0000 -0.9730
vn -0.5633 0.0000 0.8262
vn 0.4111 0.0000 -0.9116
vn -0.9971 0.0000 -0.0767
vn 0.7593 0.0000 -0.6508
vn -0.2346 0.0000 0.9721
vn 0.2514 0.9679 -0.0084
vn 0.0542 0.9472 -0.3159
vn 0.0286 0.9923 -0.1205
vn 0.0267 0.9979 -0.0592
vn 0.0914 0.9958 -0.0054
vn 0.0000 1.0000 0.0000
vn 0.0929 0.9957 0.0000
vn 0.1157 0.9916 0.0579
vn 0.0505 0.9978 -0.0433
vn -0.0083 0.9992 -0.0400
vn 0.0682 0.9891 0.1307
vn -0.1120 0.9935 -0.0205
vn 0.0869 0.9962 -0.0029
vn -0.0141 0.9955 -0.0941
vn 0.0116 0.9988 -0.0479
vn -0.3517 0.9139 -0.2027
vn 0.1024 0.9874 0.1207
vn 0.0397 0.9975 -0.0582
vn 0.0939 0.9951 -0.0300
vn -0.0449 0.9974 0.0555
vn 0.0908 0.9952 0.0367
vn 0.0767 0.9968 -0.0219
vn 0.0856 0.9928 0.0835
vn 0.0382 0.9778 0.2060
vn 0.0292 0.9979 -0.0586
vn 0.1049 0.9944 0.0091
vn 0.0440 0.9990 -0.0016
vn -0.0735 0.9969 -0.0280
vn -0.0437 0.9974 0.0575
usemtl Material.001
s off
f 27/1/1 26/2/1 25/3/1
f 27/1/2 25/3/2 24/4/2
f 23/5/3 29/6/3 24/4/3
f 23/5/4 22/7/4 9/8/4
f 28/9/5 27/1/5 24/4/5
f 3/10/6 45/11/6 44/12/6
f 1/13/6 45/11/6 3/10/6
f 29/6/7 28/9/7 24/4/7
f 17/14/8 13/15/8 12/16/8
f 1/13/6 46/17/6 45/11/6
f 22/7/9 21/18/9 9/8/9
f 8/19/10 7/20/10 30/21/10
f 17/14/11 16/22/11 13/15/11
f 7/20/12 31/23/12 30/21/12
f 39/24/6 35/25/6 33/26/6
f 19/27/13 10/28/13 20/29/13
f 34/30/6 33/26/6 35/25/6
f 35/25/6 39/24/6 38/31/6
f 7/20/14 32/32/14 31/23/14
f 9/8/15 8/19/15 30/21/15
f 36/33/6 35/25/6 38/31/6
f 41/34/16 7/20/16 42/35/16
f 42/35/17 7/20/17 6/36/17
f 16/22/18 14/37/18 13/15/18
f 37/38/6 36/33/6 38/31/6
f 9/8/19 21/18/19 10/28/19
f 11/39/20 10/28/20 19/27/20
f 39/24/21 7/20/21 40/40/21
f 19/27/22 18/41/22 11/39/22
f 21/18/23 20/29/23 10/28/23
f 18/41/24 17/14/24 12/16/24
f 43/42/25 42/35/25 6/36/25
f 4/43/6 44/12/6 6/36/6
f 16/22/26 15/44/26 14/37/26
f 23/5/27 9/8/27 30/21/27
f 18/41/28 12/16/28 11/39/28
f 44/12/6 43/42/6 6/36/6
f 5/45/6 4/43/6 6/36/6
f 81/46/29 127/47/29 126/48/29 80/49/29
f 4/43/6 3/10/6 44/12/6
f 30/21/30 29/6/30 23/5/30
f 2/50/6 1/13/6 3/10/6
f 32/32/31 7/20/31 39/24/31
f 7/20/32 41/34/32 40/40/32
f 32/32/6 39/24/6 33/26/6
f 54/51/33 100/52/33 99/53/33 53/54/33
f 47/55/34 93/56/34 138/57/34 92/58/34
f 67/59/35 113/60/35 112/61/35 66/62/35
f 80/49/36 126/48/36 125/63/36 79/64/36
f 53/65/37 99/66/37 98/67/37 52/68/37
f 66/62/38 112/61/38 111/69/38 65/70/38
f 79/71/39 125/72/39 124/73/39 78/74/39
f 52/75/40 98/76/40 97/77/40 51/78/40
f 92/79/41 138/80/41 137/81/41 91/82/41
f 65/70/42 111/69/42 110/83/42 64/84/42
f 78/74/43 124/73/43 123/85/43 77/86/43
f 51/87/44 97/88/44 96/89/44 50/90/44
f 91/82/45 137/81/45 136/91/45 90/92/45
f 64/84/46 110/83/46 109/93/46 63/94/46
f 77/95/47 123/96/47 122/97/47 76/98/47
f 50/90/48 96/89/48 95/99/48 49/100/48
f 90/92/49 136/91/49 135/101/49 89/102/49
f 63/103/50 109/104/50 108/105/50 62/106/50
f 48/107/51 94/108/51 93/56/51 47/55/51
f 76/98/52 122/97/52 121/109/52 75/110/52
f 49/100/53 95/99/53 94/111/53 48/112/53
f 89/102/54 135/101/54 134/113/54 88/114/54
f 62/106/55 108/105/55 107/115/55 61/116/55
f 75/110/41 121/109/41 120/117/41 74/118/41
f 88/114/56 134/113/56 133/119/56 87/120/56
f 61/121/57 107/122/57 106/123/57 60/124/57
f 74/118/58 120/117/58 119/125/58 73/126/58
f 87/127/59 133/128/59 132/129/59 86/130/59
f 60/124/60 106/123/60 105/131/60 59/132/60
f 73/126/61 119/125/61 118/133/61 72/134/61
f 86/130/62 132/129/62 131/135/62 85/136/62
f 59/132/63 105/131/63 104/137/63 58/138/63
f 72/139/64 118/140/64 117/141/64 71/142/64
f 85/136/65 131/135/65 130/143/65 84/144/65
f 58/138/66 104/137/66 103/145/66 57/146/66
f 71/142/67 117/141/67 116/147/67 70/148/67
f 84/149/68 130/150/68 129/151/68 83/152/68
f 57/146/69 103/145/69 102/153/69 56/154/69
f 70/148/70 116/147/70 115/155/70 69/156/70
f 83/152/41 129/151/41 128/157/41 82/158/41
f 56/159/71 102/160/71 101/161/71 55/162/71
f 69/156/72 115/155/72 114/163/72 68/164/72
f 82/158/73 128/157/73 127/47/73 81/46/73
f 18/165/46 64/84/46 63/94/46 17/166/46
f 45/167/45 91/82/45 90/92/45 44/168/45
f 5/169/44 51/87/44 50/90/44 4/170/44
f 32/171/43 78/74/43 77/86/43 31/172/43
f 19/173/42 65/70/42 64/84/42 18/165/42
f 46/174/41 92/79/41 91/82/41 45/167/41
f 6/175/40 52/75/40 51/78/40 5/176/40
f 33/177/39 79/71/39 78/74/39 32/171/39
f 20/178/38 66/62/38 65/70/38 19/173/38
f 7/179/37 53/65/37 52/68/37 6/180/37
f 34/181/36 80/49/36 79/64/36 33/182/36
f 21/183/35 67/59/35 66/62/35 20/178/35
f 1/184/34 47/55/34 92/58/34 46/185/34
f 8/186/33 54/51/33 53/54/33 7/187/33
f 35/188/29 81/46/29 80/49/29 34/181/29
f 22/189/74 68/164/74 67/190/74 21/191/74
f 9/192/75 55/162/75 54/51/75 8/186/75
f 36/193/73 82/158/73 81/46/73 35/188/73
f 23/194/72 69/156/72 68/164/72 22/189/72
f 10/195/71 56/159/71 55/162/71 9/192/71
f 37/196/41 83/152/41 82/158/41 36/193/41
f 24/197/70 70/148/70 69/156/70 23/194/70
f 11/198/69 57/146/69 56/154/69 10/199/69
f 38/200/68 84/149/68 83/152/68 37/196/68
f 25/201/67 71/142/67 70/148/67 24/197/67
f 12/202/66 58/138/66 57/146/66 11/198/66
f 39/203/65 85/136/65 84/144/65 38/204/65
f 26/205/64 72/139/64 71/142/64 25/201/64
f 13/206/63 59/132/63 58/138/63 12/202/63
f 40/207/62 86/130/62 85/136/62 39/203/62
f 27/208/61 73/126/61 72/134/61 26/209/61
f 14/210/60 60/124/60 59/132/60 13/206/60
f 41/211/59 87/127/59 86/130/59 40/207/59
f 28/212/58 74/118/58 73/126/58 27/208/58
f 15/213/57 61/121/57 60/124/57 14/210/57
f 42/214/56 88/114/56 87/120/56 41/215/56
f 2/216/51 48/107/51 47/55/51 1/184/51
f 29/217/41 75/110/41 74/118/41 28/212/41
f 16/218/55 62/106/55 61/116/55 15/219/55
f 43/220/54 89/102/54 88/114/54 42/214/54
f 3/221/53 49/100/53 48/112/53 2/222/53
f 30/223/52 76/98/52 75/110/52 29/217/52
f 17/224/50 63/103/50 62/106/50 16/218/50
f 44/168/49 90/92/49 89/102/49 43/220/49
f 4/170/48 50/90/48 49/100/48 3/221/48
f 31/225/47 77/95/47 76/98/47 30/223/47
f 119/226/76 117/227/76 118/228/76
f 119/226/77 116/229/77 117/227/77
f 115/230/78 116/229/78 121/231/78
f 115/230/79 101/232/79 114/233/79
f 120/234/80 116/229/80 119/226/80
f 95/235/81 136/236/81 137/237/81
f 93/238/81 95/235/81 137/237/81
f 121/231/82 116/229/82 120/234/82
f 109/239/83 104/240/83 105/241/83
f 93/238/81 137/237/81 138/242/81
f 114/233/84 101/232/84 113/243/84
f 100/244/85 122/245/85 99/246/85
f 109/239/86 105/241/86 108/247/86
f 99/246/87 122/245/87 123/248/87
f 131/249/81 125/250/81 127/251/81
f 111/252/88 112/253/88 102/254/88
f 126/255/81 127/251/81 125/250/81
f 127/251/81 130/256/81 131/249/81
f 99/246/89 123/248/89 124/257/89
f 101/232/90 122/245/90 100/244/90
f 128/258/81 130/256/81 127/251/81
f 133/259/91 134/260/91 99/246/91
f 134/260/81 98/261/81 99/246/81
f 108/247/92 105/241/92 106/262/92
f 129/263/81 130/256/81 128/258/81
f 101/232/93 102/254/93 113/243/93
f 103/264/94 111/252/94 102/254/94
f 131/249/95 132/265/95 99/246/95
f 111/252/96 103/264/96 110/266/96
f 113/243/97 102/254/97 112/253/97
f 110/266/98 104/240/98 109/239/98
f 135/267/81 98/261/81 134/260/81
f 96/268/81 98/261/81 136/236/81
f 108/247/99 106/262/99 107/269/99
f 115/230/100 122/245/100 101/232/100
f 110/266/101 103/264/101 104/240/101
f 136/236/81 98/261/81 135/267/81
f 97/270/81 98/261/81 96/268/81
f 96/268/81 136/236/81 95/235/81
f 122/245/102 115/230/102 121/231/102
f 94/271/81 95/235/81 93/238/81
f 124/257/103 131/249/103 99/246/103
f 99/246/104 132/265/104 133/259/104
f 124/257/81 125/250/81 131/249/81
f 68/164/74 114/163/74 113/272/74 67/190/74
f 55/162/75 101/161/75 100/52/75 54/51/75
